<?xml version="1.0" encoding="utf-8"?>
<!-- Generator: Adobe Illustrator 23.0.1, SVG Export Plug-In . SVG Version: 6.00 Build 0)  -->
<svg version="1.1" id="Layer_1" xmlns="http://www.w3.org/2000/svg" xmlns:xlink="http://www.w3.org/1999/xlink" x="0px" y="0px"
	 width="1000px" height="1000px" viewBox="0 0 1000 1000" style="enable-background:new 0 0 1000 1000;" xml:space="preserve">
<path d="M55,523.9c5.3-11.5,9.3-23.4,13.2-35.4c8.4-25.8,34.8-32.2,54-13.1c4.8,4.7,8.6,10.4,12.3,15.9
	c10.1,16.1,19.1,16.8,31.9,2.7c5.1-5.7,11-11.8,17.8-15.2c20.3-10.6,36.3-1.1,35.4,21.3c-0.4,10.8-3.5,21.3-6.3,31.7
	c-2.2,8.2-7.5,20.1-3.6,28.3c4,8.5,16,11.5,23.8,5.9c9.5-6.9,5.4-21.6,4-31.2c-1.9-13.5-4.5-27-4.2-40.6c0.2-5.5,3.5-12.9,7.9-16.1
	c12.9-9.5,28.2-1.9,27.9,13.7c-0.2,9.7-9.5,22-1.8,30.6c7.7,8.6,20.8,2.5,21.6-9.5c0.5-6.6-3.5-16.2-4.4-22.9
	c-2.7-21.5,15.1-39,39.4-30.3c13.5,4.8,20.4,15.5,32,23.7c24.2,17.5,34.6,14.1,56.4-5.9c2.7-2.5,5.5-5,8.6-7.3
	c16.3-12.5,28.2-11.6,43.2,2.5c14.5,13.4,30.8,24.5,51.7,20c10.1-2.1,20.2-8.6,28.4-15c19.4-15.2,33.3-16.5,53.3-2.3
	c3.7,2.7,7.3,5.4,11.2,7.9c8.6,5.5,17.2,5.4,25.6-0.4c3.7-2.5,7-5.7,10.3-8.8c19.4-17.4,37.6-16.5,53.1,4.3
	c11.9,15.7,25.6,27.4,46.7,23.3c9.9-2,20-6.8,28.2-12.7c13.9-9.8,27.5-19.3,45.4-21.3c28.9-2.7,51.1,14.5,52.9,42.8
	c0.4,5.5,1.1,11.1,2,16.6c2.6,14.7,12.6,18.8,25.5,10.4c5.7-3.8,11-13.1,18-6.6c7.7,7.2,6.9,19.7,5.8,29c-1.2,9.5-2.8,19.1-5.3,28.4
	c-1.5,5.4-2.7,11.2-2.3,16.9c0.3,3.8,1.5,7.6,4,10.4c3.1,3.6,8,5.5,12.8,5.9c3.7,0.3,7.5-0.2,10.8-1.9c6.3-3.3,7.7-9.9,7.1-16.4
	c-1-13.1-7.9-28.3-8.7-41.5c-0.7-11.4-0.9-20.2,1.8-31.4c5.5-20.3,19.1-24.3,36.7-11.2V378.1c-319.6,0-638.9,0-959.2,0v154
	c3.2,3,7.1,5.1,11.2,6C42,540.4,49.2,536.6,55,523.9z"/>
</svg>
