<?xml version="1.0" encoding="utf-8"?>
<!-- Generator: Adobe Illustrator 23.0.1, SVG Export Plug-In . SVG Version: 6.00 Build 0)  -->
<svg version="1.1" id="Layer_1" xmlns="http://www.w3.org/2000/svg" xmlns:xlink="http://www.w3.org/1999/xlink" x="0px" y="0px"
	 width="1000px" height="1000px" viewBox="0 0 1000 1000" style="enable-background:new 0 0 1000 1000;" xml:space="preserve">
<path d="M968,396.6c-319.7,0-639.5,0-959.2,0c0,0,0,116.7,0,116.7c12.8,4.8,26.3,7.6,39.9,8.3c2.5,0.1,4.9,0.3,6.9,0.5
	c15.2,1.7,30,5.5,43.6,12.4c12.9,6.6,21.2,18.9,33.8,25.4c11.4,5.8,25.3,3.1,34.7-5.3c8.3-7.4,13-17.8,20.9-25.6
	c14.8-14.6,36.5-14.5,55.5-10c7.9,1.9,19,8.7,26.9,8.8c9,0.1,15.3-6.5,25.6-2.4c8.1,3.2,9.7,14,11.1,21.1
	c6.1,30.6,40.8,36.5,51.9,9.2c5-12.3,3.7-28.1,13.7-37.8c2.3-2.2,5-3.9,8.3-4.1c9.7-0.4,16.7,8.4,24.9,13.3
	c30.7,18.5,70.1-18.6,105.3-10.1c24,5.7,40.6,31.8,65.4,31.4c28.7-0.4,51.3-36.8,78.4-27.5c12.8,4.4,20.6,18.6,34.7,20.1
	c9.6,1,18.3-5.1,25.6-11.1c14.8-12.4,29.4-19.1,46.3-6.2c13.1,10,21.9,25.9,38.4,31.5c16,5.5,33.6-2.2,47.7-11.4
	c14-9.2,27.7-20.3,44.6-22.8c18.4-2.7,37.4,6.4,48.4,20.7c4.7,6.2,8.1,13.3,10.1,20.7c1.8,6.5,0.1,17.3,4.1,22.8
	c2.5,3.3,7,4.8,12.4,5.2V396.6z"/>
</svg>
